<?xml version="1.0" encoding="UTF-8"?>
<svg height="128px" viewBox="0 0 128 128" width="128px" xmlns="http://www.w3.org/2000/svg">
    <path d="m 117.460938 61.460938 c 0 29.523437 -23.9375 53.457031 -53.460938 53.457031 c -29.527344 0 -53.460938 -23.933594 -53.460938 -53.457031 c 0 -29.527344 23.933594 -53.460938 53.460938 -53.460938 c 29.523438 0 53.460938 23.933594 53.460938 53.460938 z m 0 0" fill="#ececec"/>
    <path d="m 108.144531 61.460938 c 0 24.378906 -19.765625 44.140624 -44.144531 44.140624 s -44.144531 -19.761718 -44.144531 -44.140624 c 0 -24.382813 19.765625 -44.144532 44.144531 -44.144532 s 44.144531 19.761719 44.144531 44.144532 z m 0 0" fill="#666666"/>
    <path d="m 104.917969 61.460938 c 0 22.597656 -18.320313 40.917968 -40.917969 40.917968 s -40.917969 -18.320312 -40.917969 -40.917968 c 0 -22.601563 18.320313 -40.921876 40.917969 -40.921876 s 40.917969 18.320313 40.917969 40.921876 z m 0 0"/>
    <path d="m 86.6875 40.046875 c 0 3.082031 -2.5 5.578125 -5.578125 5.578125 c -3.082031 0 -5.578125 -2.496094 -5.578125 -5.578125 c 0 -3.078125 2.496094 -5.578125 5.578125 -5.578125 c 3.078125 0 5.578125 2.5 5.578125 5.578125 z m 0 0" fill="#ffffff"/>
    <g fill="#ececec">
        <path d="m 60.742188 113.996094 h 6.515624 v 8.589844 h -6.515624 z m 0 0"/>
        <path d="m 27.363281 121.519531 h 73.273438 v 2.363281 h -73.273438 z m 0 0"/>
    </g>
</svg>
