<?xml version="1.0" encoding="UTF-8"?>
<svg height="16px" viewBox="0 0 16 16" width="16px" xmlns="http://www.w3.org/2000/svg">
    <g fill="#241f31">
        <path d="m 8 2.132812 c -3.253906 0 -5.890625 2.425782 -5.890625 5.414063 s 2.636719 5.410156 5.890625 5.410156 s 5.890625 -2.421875 5.890625 -5.410156 s -2.636719 -5.414063 -5.890625 -5.414063 z m -0.027344 1.269532 h 0.027344 c 2.492188 0 4.507812 1.855468 4.507812 4.144531 s -2.015624 4.140625 -4.507812 4.140625 s -4.507812 -1.855469 -4.507812 -4.140625 c 0 -2.277344 2 -4.128906 4.480468 -4.144531 z m 0 0"/>
        <path d="m 7.640625 12.863281 h 0.71875 v 0.871094 h -0.71875 z m 0 0"/>
        <path d="m 3.957031 13.699219 h 8.078125 v 0.855469 h -8.078125 z m 0 0"/>
    </g>
</svg>
